<?xml version="1.0" encoding="UTF-8" standalone="no"?>
<svg
   width="500"
   height="500"
   viewBox="0 0 374.99999 374.99999"
   version="1.1"
   id="svg79"
   sodipodi:docname="177940.svg"
   inkscape:version="1.4 (e7c3feb100, 2024-10-09)"
   xmlns:inkscape="http://www.inkscape.org/namespaces/inkscape"
   xmlns:sodipodi="http://sodipodi.sourceforge.net/DTD/sodipodi-0.dtd"
   xmlns="http://www.w3.org/2000/svg"
   xmlns:svg="http://www.w3.org/2000/svg">
  <sodipodi:namedview
     id="namedview79"
     pagecolor="#ffffff"
     bordercolor="#000000"
     borderopacity="0.25"
     inkscape:showpageshadow="2"
     inkscape:pageopacity="0.0"
     inkscape:pagecheckerboard="0"
     inkscape:deskcolor="#d1d1d1"
     inkscape:document-units="pt"
     inkscape:zoom="0.86209661"
     inkscape:cx="323.62962"
     inkscape:cy="307.39014"
     inkscape:window-width="1920"
     inkscape:window-height="951"
     inkscape:window-x="0"
     inkscape:window-y="0"
     inkscape:window-maximized="1"
     inkscape:current-layer="svg79" />
  <defs
     id="defs5">
    <clipPath
       id="clip1">
      <path
         d="m 348,361 h 31.10156 v 32 H 348 Z m 0,0"
         id="path1" />
    </clipPath>
    <clipPath
       id="clip2">
      <path
         d="m 348,186 h 31.10156 v 33 H 348 Z m 0,0"
         id="path2" />
    </clipPath>
    <clipPath
       id="clip3">
      <path
         d="m 348,11 h 31.10156 V 44 H 348 Z m 0,0"
         id="path3" />
    </clipPath>
    <clipPath
       id="clip4">
      <path
         d="m 0,526 h 139 v 96.89844 H 0 Z m 0,0"
         id="path4" />
    </clipPath>
    <clipPath
       id="clip5">
      <path
         d="m 348,538 h 31.10156 v 33 H 348 Z m 0,0"
         id="path5" />
    </clipPath>
  </defs>
  <g
     id="g80">
    <rect
       style="fill:#f8de00;fill-opacity:1;stroke-width:23.6202;stroke-linecap:round;stroke-miterlimit:24;paint-order:fill markers stroke"
       id="rect79"
       width="375"
       height="375"
       x="0"
       y="4.9737992e-14"
       ry="9.0528975" />
    <g
       id="g79"
       transform="matrix(2.6198514,0,0,2.6198514,5.4817272,61.875055)">
      <path
         style="fill:#283382;fill-opacity:1;fill-rule:evenodd;stroke:none"
         d="m 138.89844,45.308594 c 0,-25.011719 -31.08203,-45.402344 -69.417971,-45.402344 -38.339844,0 -69.417969,20.390625 -69.417969,45.402344 0,0.644531 -0.0078125,2.433594 -0.0078125,2.660156 0,26.535156 27.1679685,48.027344 69.4179685,48.027344 42.507814,0 69.425784,-21.488281 69.425784,-48.023438 0,-0.933593 0,-1.460937 0,-2.664062 z m 0,0"
         id="path41" />
      <path
         style="fill:#f8de00;fill-opacity:1;fill-rule:evenodd;stroke:none"
         d="m 136.23828,45.285156 c 0,23.582032 -29.88281,42.699219 -66.746092,42.699219 C 32.628906,87.984375 2.75,68.867188 2.75,45.285156 2.75,21.703125 32.628906,2.585938 69.492188,2.585938 c 36.863282,0 66.746092,19.117187 66.746092,42.699218 z m 0,0"
         id="path42" />
      <path
         style="fill:#ffffff;fill-opacity:1;fill-rule:evenodd;stroke:none"
         d="m 47.332031,31.816406 c -0.03906,0.06641 -0.703125,0.753907 -0.273437,1.304688 1.054687,1.347656 4.308594,2.121094 7.597656,1.382812 1.960938,-0.441406 4.472656,-2.4375 6.902344,-4.367187 2.636719,-2.097656 5.25,-4.191406 7.878906,-5.023438 2.785156,-0.886718 4.566406,-0.507812 5.746094,-0.152343 1.292969,0.386718 2.8125,1.238281 5.238281,3.058593 4.566406,3.433594 22.929685,19.460938 26.105465,22.234375 2.5586,-1.15625 13.91016,-6.050781 29.34375,-9.445312 -1.33984,-8.230469 -6.34375,-15.757813 -13.93359,-21.921875 -10.58203,4.441406 -23.507812,6.761719 -36.152344,0.585937 -0.0625,-0.02344 -6.90625,-3.261718 -13.65625,-3.105468 -10.03125,0.234375 -14.375,4.574218 -18.976562,9.171875 z m 0,0"
         id="path43" />
      <path
         style="fill:#ffffff;fill-opacity:1;fill-rule:evenodd;stroke:none"
         d="M 105.78125,51.996094 C 105.56641,51.804688 84.1875,33.097656 79.34375,29.453125 c -2.804687,-2.097656 -4.363281,-2.632812 -6,-2.839844 -0.851562,-0.117187 -2.027344,0.04687 -2.851562,0.269532 -2.253907,0.613281 -5.199219,2.585937 -7.8125,4.65625 -2.710938,2.160156 -5.261719,4.191406 -7.628907,4.71875 -3.03125,0.679687 -6.722656,-0.121094 -8.414062,-1.261719 -0.679688,-0.457031 -1.164063,-0.988281 -1.394531,-1.53125 -0.621094,-1.441406 0.527343,-2.597656 0.71875,-2.792969 l 5.894531,-6.382812 c 0.6875,-0.679688 1.378906,-1.367188 2.085937,-2.042969 -1.90625,0.25 -3.664062,0.738281 -5.378906,1.214844 -2.136719,0.601562 -4.191406,1.171875 -6.273437,1.171875 -0.867188,0 -5.519532,-0.765625 -6.402344,-1.003907 C 30.546875,22.164063 25.863281,20.746094 18.863281,17.476563 10.476563,23.71875 4.867188,31.527344 3.25,40.121094 c 1.207031,0.324219 3.144531,0.902344 3.960938,1.082031 18.980468,4.21875 24.890625,8.566406 25.960937,9.472656 1.167969,-1.289062 2.835938,-2.109375 4.707031,-2.109375 2.101563,0.0039 3.992188,1.054688 5.140625,2.691407 1.089844,-0.859375 2.585938,-1.59375 4.523438,-1.59375 0.882812,0 1.796875,0.164062 2.714844,0.476562 2.144531,0.730469 3.246093,2.160156 3.824218,3.453125 0.714844,-0.324219 1.597657,-0.566406 2.640625,-0.5625 1.019532,0 2.082032,0.234375 3.15625,0.695313 3.5,1.503906 4.042969,4.9375 3.722657,7.53125 0.25,-0.02734 0.5,-0.03906 0.757812,-0.03906 4.148438,0 7.523438,3.375 7.519531,7.523438 0,1.285156 -0.328125,2.492187 -0.898437,3.554687 1.128906,0.632813 4.007812,2.070313 6.53125,1.75 2.019531,-0.257812 2.785156,-0.945312 3.066406,-1.332031 0.183594,-0.269531 0.386719,-0.578125 0.195313,-0.804688 l -5.355469,-5.949218 c 0,0 -0.878906,-0.832032 -0.585938,-1.152344 0.300782,-0.332031 0.84375,0.144531 1.230469,0.464844 2.722656,2.277343 6.050781,5.710937 6.050781,5.710937 0.05859,0.03516 0.277344,0.46875 1.507813,0.691406 1.058594,0.191407 2.933594,0.08203 4.234375,-0.984375 0.324219,-0.269531 0.65625,-0.605468 0.925781,-0.953125 -0.01953,0.01563 -0.03906,0.03906 -0.05859,0.04687 1.371094,-1.75 -0.152343,-3.523437 -0.152343,-3.523437 l -6.25,-7.023438 c 0,0 -0.894532,-0.824218 -0.589844,-1.160156 0.273437,-0.289062 0.851562,0.148438 1.238281,0.476563 1.984375,1.648437 4.777344,4.460937 7.457031,7.085937 0.527344,0.382813 2.878907,1.839844 6,-0.207031 1.890625,-1.242188 2.277344,-2.769531 2.21875,-3.917969 -0.132816,-1.523435 -1.31641,-2.609373 -1.31641,-2.609373 L 88.78125,50.320313 c 0,0 -0.898437,-0.769532 -0.578125,-1.160157 0.261719,-0.332031 0.84375,0.144532 1.226563,0.460938 2.722656,2.28125 10.085937,9.03125 10.085937,9.03125 0.105469,0.07422 2.648435,1.886719 5.792965,-0.113281 1.125,-0.71875 1.84375,-1.804688 1.90625,-3.0625 0.10547,-2.1875 -1.43359,-3.480469 -1.43359,-3.480469 z m 0,0"
         id="path44" />
      <path
         style="fill:#ffffff;fill-opacity:1;fill-rule:evenodd;stroke:none"
         d="m 64.355469,62.878906 c -1.324219,-0.01172 -2.765625,0.773438 -2.960938,0.660157 -0.105468,-0.07031 0.08203,-0.605469 0.207032,-0.910157 0.125,-0.304687 1.867187,-5.550781 -2.382813,-7.375 -3.25,-1.398437 -5.238281,0.175782 -5.921875,0.886719 -0.179687,0.183594 -0.261719,0.167969 -0.28125,-0.06641 -0.0625,-0.945313 -0.488281,-3.503906 -3.296875,-4.359375 -4.007812,-1.226563 -6.589844,1.574219 -7.246094,2.582031 -0.292968,-2.285156 -2.226562,-4.0625 -4.59375,-4.0625 -2.574218,-0.0039 -4.660156,2.082031 -4.664062,4.652344 0,2.574219 2.085937,4.660156 4.65625,4.660156 1.25,0.0039 2.386719,-0.496094 3.222656,-1.300781 0.02344,0.02344 0.03516,0.07031 0.02344,0.15625 -0.195313,1.152344 -0.558594,5.339844 3.824218,7.042969 1.761719,0.683593 3.253907,0.175781 4.492188,-0.699219 0.371094,-0.253906 0.429687,-0.144531 0.378906,0.203125 -0.160156,1.074219 0.04297,3.378906 3.277344,4.691406 2.453125,1 3.914062,-0.02344 4.867187,-0.90625 0.410157,-0.378906 0.523438,-0.320312 0.546875,0.269531 0.117188,3.117188 2.707032,5.589844 5.84375,5.589844 3.242188,0.0039 5.867188,-2.613281 5.867188,-5.851562 0,-3.238282 -2.621094,-5.828125 -5.859375,-5.863282 z m 0,0"
         id="path45" />
      <path
         style="fill:#28337a;fill-opacity:1;fill-rule:evenodd;stroke:none"
         d="m 64.355469,74.179688 c -2.933594,-0.0039 -5.320313,-2.285157 -5.425781,-5.191407 -0.0078,-0.25 -0.03516,-0.910156 -0.589844,-0.910156 -0.234375,0 -0.433594,0.136719 -0.664063,0.347656 -0.644531,0.597657 -1.464843,1.203125 -2.667968,1.203125 -0.542969,0 -1.136719,-0.125 -1.753907,-0.382812 -3.101562,-1.25 -3.144531,-3.378906 -3.019531,-4.238281 0.03516,-0.226563 0.04687,-0.46875 -0.113281,-0.648438 l -0.1875,-0.171875 h -0.195313 c -0.152343,0 -0.320312,0.06641 -0.535156,0.21875 -0.898437,0.632813 -1.757812,0.9375 -2.632812,0.9375 -0.480469,0 -0.976563,-0.09766 -1.46875,-0.289062 -4.082032,-1.585938 -3.757813,-5.4375 -3.558594,-6.601563 0.02734,-0.230469 -0.03125,-0.414062 -0.179688,-0.539062 l -0.28125,-0.230469 -0.273437,0.257812 c -0.796875,0.761719 -1.835938,1.179688 -2.929688,1.179688 -2.335937,0 -4.238281,-1.894531 -4.238281,-4.234375 0.0039,-2.335938 1.90625,-4.234375 4.242188,-4.230469 2.113281,0 3.910156,1.589844 4.179687,3.695313 l 0.148438,1.140625 0.625,-0.964844 c 0.06641,-0.113281 1.78125,-2.699219 4.925781,-2.699219 0.601562,0 1.21875,0.09766 1.839844,0.292969 2.511718,0.761719 2.933593,3.039062 3,3.984375 0.04687,0.554687 0.4375,0.582031 0.515625,0.582031 0.21875,0 0.375,-0.140625 0.488281,-0.257812 0.476562,-0.492188 1.503906,-1.316407 3.121094,-1.316407 0.738281,0.0039 1.527343,0.175782 2.335937,0.527344 3.984375,1.710938 2.175781,6.773438 2.15625,6.832031 -0.339844,0.839844 -0.355469,1.210938 -0.03516,1.421875 l 0.15625,0.07813 h 0.121094 c 0.175781,0 0.398437,-0.07813 0.769531,-0.203125 0.542969,-0.191406 1.363281,-0.472656 2.128906,-0.46875 3.003906,0.02734 5.445313,2.476563 5.441406,5.441407 0,3 -2.445312,5.4375 -5.445312,5.4375 z M 106.60547,49.757813 c -6.58203,-5.75 -21.800782,-18.980469 -25.925782,-22.074219 -2.351563,-1.769531 -3.960938,-2.707031 -5.371094,-3.125 -0.632813,-0.191406 -1.507813,-0.410156 -2.636719,-0.410156 -1.050781,0 -2.175781,0.1875 -3.351562,0.5625 -2.664063,0.84375 -5.316407,2.953125 -7.886719,4.992187 l -0.128906,0.105469 c -2.390625,1.894531 -4.863282,3.867187 -6.734375,4.285156 -0.816407,0.183594 -1.65625,0.277344 -2.488282,0.277344 -2.097656,-0.0039 -3.980468,-0.609375 -4.683593,-1.507813 -0.117188,-0.148437 -0.04297,-0.390625 0.230468,-0.734375 l 0.03516,-0.05078 5.796875,-6.238281 c 4.53125,-4.539063 8.820312,-8.824219 18.683593,-9.050781 0.164063,-0.0039 0.328125,-0.0078 0.492188,-0.0078 6.140625,0.0039 12.28125,2.753906 12.96875,3.074219 5.757812,2.808594 11.699219,4.234375 17.675778,4.238281 6.22656,0.0039 12.64844,-1.539062 19.40234,-4.648437 -0.7539,-0.636719 -1.53906,-1.253907 -2.34375,-1.859375 -5.9375,2.574218 -11.58593,3.875 -17.04296,3.867187 -5.570314,0 -11.136721,-1.339844 -16.539064,-3.976562 -0.289063,-0.132813 -7.066407,-3.332032 -14.117188,-3.332032 -0.179687,0 -0.371094,0 -0.554687,0.0039 -8.289063,0.195312 -12.957032,3.136718 -16.09375,5.714843 -3.054688,0.07422 -5.6875,0.8125 -8.027344,1.464844 -2.09375,0.582031 -3.902344,1.085938 -5.664063,1.085938 -0.71875,0 -2.03125,-0.06641 -2.148437,-0.07031 -2.023438,-0.0625 -12.226563,-2.566406 -20.34375,-5.640625 -0.832031,0.585938 -1.628906,1.195313 -2.402344,1.8125 8.476563,3.476563 18.800781,6.164063 22.058594,6.375 0.902344,0.05859 1.871094,0.160156 2.832031,0.164063 2.160156,0 4.304688,-0.605469 6.386719,-1.1875 1.230469,-0.34375 2.585937,-0.71875 4.011719,-0.996094 -0.378907,0.375 -0.761719,0.75 -1.140625,1.136719 l -5.886719,6.363281 c -0.460938,0.472656 -1.464844,1.71875 -0.804688,3.257812 0.265625,0.617188 0.796875,1.210938 1.546875,1.71875 1.402344,0.941407 3.917969,1.582032 6.246094,1.582032 0.882813,0.0039 1.722656,-0.08594 2.492188,-0.257813 2.46875,-0.554687 5.058593,-2.617187 7.796875,-4.800781 2.183593,-1.730469 5.289062,-3.933594 7.664062,-4.582031 0.664063,-0.179688 1.480469,-0.292969 2.136719,-0.292969 0.195312,0 0.382812,0.0078 0.550781,0.03125 1.570313,0.199219 3.089844,0.734375 5.800781,2.769531 4.828125,3.628906 26.210931,22.332031 26.417971,22.515625 0.0156,0.01172 1.3789,1.183594 1.28515,3.140625 -0.0469,1.09375 -0.65625,2.0625 -1.71094,2.730469 -0.91015,0.582031 -1.85156,0.875 -2.80468,0.875 -1.42969,-0.0039 -2.414063,-0.671875 -2.476563,-0.71875 -0.07813,-0.0625 -7.40625,-6.78125 -10.09375,-9.035156 -0.433594,-0.355469 -0.851563,-0.675782 -1.273438,-0.675782 -0.226562,-0.0078 -0.425781,0.09375 -0.558593,0.261719 -0.421875,0.523438 0.04687,1.246094 0.609375,1.722656 l 8.554687,8.601563 c 0.01172,0.0078 1.066406,1 1.183594,2.316406 0.06641,1.421875 -0.613281,2.621094 -2.027344,3.546875 -1.015625,0.667969 -2.035156,1 -3.039062,1 -1.3125,0 -2.234375,-0.59375 -2.4375,-0.734375 l -1.230469,-1.210937 c -2.242188,-2.207032 -4.558594,-4.488282 -6.253906,-5.90625 -0.410157,-0.34375 -0.855469,-0.660157 -1.273438,-0.660157 -0.210937,0 -0.398437,0.07813 -0.539062,0.230469 -0.195313,0.214844 -0.328125,0.601563 0.15625,1.242188 0.195312,0.261718 0.425781,0.480468 0.425781,0.480468 l 6.246094,7.015625 c 0.05078,0.05859 1.289062,1.527344 0.140625,2.988282 l -0.21875,0.28125 c -0.1875,0.207031 -0.390625,0.394531 -0.582032,0.558593 -1.066406,0.875 -2.488281,0.964844 -3.050781,0.964844 -0.300781,0 -0.589844,-0.02344 -0.839844,-0.06641 -0.617187,-0.113281 -1.035156,-0.285156 -1.234375,-0.519531 l -0.07422,-0.07813 c -0.34375,-0.355469 -3.492188,-3.566407 -6.09375,-5.742188 -0.339844,-0.285156 -0.773438,-0.648437 -1.214844,-0.648437 -0.21875,0 -0.414063,0.08594 -0.5625,0.25 -0.515625,0.566406 0.257812,1.410156 0.585937,1.71875 l 5.324219,5.875 c -0.0078,0.04687 -0.07422,0.171875 -0.203125,0.355468 -0.1875,0.265625 -0.835937,0.910157 -2.765625,1.148438 -0.234375,0.03516 -0.472656,0.04297 -0.707031,0.04297 -1.992188,0 -4.117188,-0.960938 -5.214844,-1.542969 0.5,-1.050781 0.757813,-2.210938 0.757813,-3.375 0.0039,-4.382813 -3.558594,-7.949219 -7.941407,-7.957031 -0.09375,0 -0.191406,0.0078 -0.28125,0.01172 0.136719,-2 -0.144531,-5.792968 -4.035156,-7.460937 -1.117187,-0.484375 -2.234375,-0.730469 -3.320312,-0.730469 -0.847657,0 -1.664063,0.144531 -2.433594,0.441406 -0.804688,-1.566406 -2.144531,-2.707031 -3.890625,-3.304687 -0.964844,-0.332031 -1.921875,-0.5 -2.851563,-0.5 -1.617187,0 -3.109375,0.476562 -4.4375,1.417969 -1.273437,-1.585938 -3.199218,-2.519532 -5.226562,-2.519532 -1.773438,0 -3.480469,0.710938 -4.746094,1.960938 C 31.484375,48.839844 24.90625,44.664063 7.308594,40.664063 6.457031,40.476563 4.5,39.914063 3.300781,39.5625 c -0.199218,0.953125 -0.351562,1.917969 -0.449218,2.890625 0,0 3.246093,0.773438 3.882812,0.917969 17.980469,3.992187 23.921875,8.144531 24.925781,8.929687 -0.339843,0.820313 -0.519531,1.695313 -0.519531,2.585938 -0.0039,3.714844 3.019531,6.742187 6.738281,6.742187 0.414063,0 0.832032,-0.03516 1.234375,-0.109375 0.558594,2.734375 2.351563,4.804688 5.082032,5.867188 0.796875,0.308594 1.609375,0.464844 2.398437,0.464844 0.515625,0.0039 1.035156,-0.0625 1.535156,-0.191407 0.503907,1.285157 1.640625,2.878907 4.179688,3.914063 0.894531,0.355469 1.78125,0.546875 2.652344,0.546875 0.703125,0 1.394531,-0.125 2.050781,-0.367188 1.21875,2.960938 4.117187,4.925782 7.34375,4.925782 2.140625,0.0039 4.195312,-0.867188 5.691406,-2.410157 1.289063,0.710938 3.992188,2.003907 6.726563,2.007813 0.355468,0 0.691406,-0.03125 1.019531,-0.06641 2.714844,-0.34375 3.980469,-1.40625 4.5625,-2.230469 0.105469,-0.144531 0.199219,-0.296875 0.277344,-0.457031 0.640625,0.179687 1.347656,0.335937 2.15625,0.335937 1.484375,0 2.90625,-0.503906 4.347656,-1.554687 1.414062,-1.019532 2.417969,-2.484375 2.566406,-3.726563 0.0039,-0.01953 0.0039,-0.03906 0.0078,-0.05469 0.472656,0.09766 0.960937,0.148437 1.449218,0.148437 1.527344,0 3.03125,-0.476562 4.46875,-1.417969 2.765627,-1.816406 3.250007,-4.1875 3.207037,-5.738281 0.48047,0.101563 0.97656,0.148438 1.46875,0.148438 1.43359,0 2.83984,-0.429688 4.18359,-1.285157 1.71485,-1.09375 2.75,-2.777343 2.90625,-4.730468 0.10938,-1.328125 -0.22265,-2.671875 -0.92578,-3.820313 4.64453,-2 15.25,-5.875 27.74219,-8.683594 -0.082,-0.96875 -0.21875,-1.925781 -0.39453,-2.878906 -15.10547,3.355469 -26.38672,8.230469 -29.21094,9.492188 z m 0,0"
         id="path46" />
    </g>
  </g>
</svg>
